<?xml version="1.0" standalone="no"?>
<!DOCTYPE svg PUBLIC "-//W3C//DTD SVG 20010904//EN"
 "http://www.w3.org/TR/2001/REC-SVG-20010904/DTD/svg10.dtd">
<svg version="1.0" xmlns="http://www.w3.org/2000/svg"
 width="512.000000pt" height="512.000000pt" viewBox="0 0 512.000000 512.000000"
 preserveAspectRatio="xMidYMid meet">
<metadata>
Created by potrace 1.11, written by Peter Selinger 2001-2013
</metadata>
<g transform="translate(0.000000,512.000000) scale(0.100000,-0.100000)"
fill="#000000" stroke="none">
<path d="M0 2560 l0 -2560 375 0 375 0 0 2560 0 2560 -375 0 -375 0 0 -2560z"/>
<path d="M1495 4427 l0 -371 60 -31 c33 -17 148 -77 255 -132 107 -55 328
-169 490 -253 420 -217 589 -304 805 -415 105 -54 235 -121 290 -150 55 -29
195 -101 310 -160 116 -59 246 -127 290 -150 44 -23 153 -79 242 -125 90 -45
161 -86 158 -90 -3 -5 -65 -38 -138 -75 -72 -37 -138 -72 -144 -77 -7 -6 -13
-7 -13 -3 0 4 -6 2 -14 -4 -14 -12 -57 -34 -501 -261 -154 -78 -352 -180 -440
-225 -497 -255 -1118 -574 -1470 -755 l-180 -92 0 -363 c0 -200 3 -366 6 -370
4 -3 44 14 90 38 46 24 138 72 204 107 66 34 152 79 190 100 39 20 129 68 200
105 72 37 162 84 200 105 39 21 120 63 180 95 178 93 314 164 410 215 50 26
140 73 200 105 61 32 151 79 200 105 50 26 135 71 190 100 55 29 141 74 190
100 50 26 149 78 220 115 72 38 200 105 285 150 85 45 223 117 305 160 83 43
209 109 280 147 72 38 163 85 202 106 l73 37 0 341 0 340 -72 39 c-40 20 -104
54 -143 75 -38 21 -133 70 -210 110 -77 40 -178 93 -225 118 -127 67 -251 132
-380 200 -63 33 -191 100 -285 149 -173 92 -297 157 -530 278 -123 64 -185 97
-350 185 -38 21 -128 68 -200 105 -173 90 -320 167 -430 225 -87 46 -172 91
-395 208 -58 30 -132 69 -165 87 -83 45 -163 86 -205 106 l-35 16 0 -370z"/>
<path d="M1486 3293 c1 -71 2 -131 3 -134 0 -3 101 -83 224 -177 380 -293 461
-357 463 -367 1 -5 -59 -55 -133 -110 -75 -55 -141 -105 -147 -111 -6 -5 -45
-36 -86 -67 -41 -31 -86 -65 -100 -76 -14 -11 -66 -51 -117 -90 -50 -39 -95
-76 -100 -83 -6 -10 -13 -268 -7 -268 1 0 116 90 194 153 8 7 35 28 60 47 25
19 52 40 60 47 8 7 53 42 100 79 47 36 94 73 105 82 11 10 49 40 85 67 36 27
110 86 166 130 l101 81 1 122 1 121 -102 80 c-56 45 -163 128 -237 187 -167
131 -187 147 -264 207 -33 26 -77 60 -97 76 -55 45 -168 131 -172 131 -1 0 -2
-57 -1 -127z"/>
<path d="M2003 3285 c0 -86 4 -136 11 -139 6 -2 68 -48 138 -102 69 -55 209
-162 309 -239 100 -77 196 -151 212 -165 l29 -26 -113 -87 c-63 -47 -119 -91
-126 -96 -6 -6 -67 -52 -135 -103 -67 -51 -128 -97 -134 -103 -34 -30 -55 -45
-63 -45 -5 0 -11 -3 -13 -8 -1 -4 -28 -27 -58 -51 l-55 -43 -1 -130 c-1 -106
1 -128 12 -124 13 5 100 73 599 466 88 69 183 143 211 165 l50 40 0 124 -1
124 -35 26 c-20 14 -69 53 -110 86 -41 33 -93 73 -115 89 -22 17 -42 33 -45
36 -3 3 -25 21 -50 40 -25 19 -47 37 -50 40 -9 10 -460 360 -464 360 -2 0 -3
-61 -3 -135z"/>
</g>
</svg>
