<?xml version="1.0" standalone="no"?>
<!DOCTYPE svg PUBLIC "-//W3C//DTD SVG 20010904//EN"
 "http://www.w3.org/TR/2001/REC-SVG-20010904/DTD/svg10.dtd">
<svg version="1.0" xmlns="http://www.w3.org/2000/svg"
 width="550.000000pt" height="550.000000pt" viewBox="0 0 550.000000 550.000000"
 preserveAspectRatio="xMidYMid meet">
<metadata>
Created by potrace 1.11, written by Peter Selinger 2001-2013
</metadata>
<g transform="translate(0.000000,550.000000) scale(0.100000,-0.100000)"
fill="#000000" stroke="none">
<path d="M3290 4613 l0 -530 -1600 1 -1600 1 0 -532 c0 -293 3 -533 8 -534 19
-2 5320 -4 5319 -2 -5 6 -2104 2106 -2114 2115 -10 8 -13 -97 -13 -519z"/>
<path d="M113 2482 l-23 -3 0 -532 0 -532 1600 1 1600 1 0 -534 0 -533 1065
1065 c586 586 1065 1066 1065 1068 0 3 -5282 2 -5307 -1z"/>
</g>
</svg>
