<?xml version="1.0" standalone="no"?>
<!DOCTYPE svg PUBLIC "-//W3C//DTD SVG 20010904//EN"
 "http://www.w3.org/TR/2001/REC-SVG-20010904/DTD/svg10.dtd">
<svg version="1.0" xmlns="http://www.w3.org/2000/svg"
 width="378.000000pt" height="378.000000pt" viewBox="0 0 378.000000 378.000000"
 preserveAspectRatio="xMidYMid meet">
<metadata>
Created by potrace 1.11, written by Peter Selinger 2001-2013
</metadata>
<g transform="translate(0.000000,378.000000) scale(0.100000,-0.100000)"
fill="#000000" stroke="none">
<path d="M1964 3486 c-18 -14 -19 -30 -19 -415 0 -395 0 -401 -20 -402 -11 0
-353 -1 -761 -2 -612 -2 -744 -4 -757 -16 -15 -12 -17 -45 -17 -293 l0 -279
29 -12 c21 -9 369 -12 1472 -11 794 0 1454 4 1466 8 24 8 37 37 29 64 -10 32
-1360 1372 -1382 1372 -11 0 -29 -6 -40 -14z"/>
<path d="M462 1720 c-31 -3 -57 -12 -62 -20 -6 -8 -10 -137 -10 -286 0 -241 2
-273 17 -285 13 -12 152 -15 777 -19 l761 -5 0 -396 c0 -429 0 -429 54 -429
21 0 150 124 709 683 482 482 682 689 682 704 0 27 -25 53 -53 54 -108 4
-2835 3 -2875 -1z"/>
</g>
</svg>
